<svg width="74" height="26" viewBox="0 0 74 26" fill="none" xmlns="http://www.w3.org/2000/svg">
<rect width="74" height="26" fill="#F5F5F5"/>
<path fill-rule="evenodd" clip-rule="evenodd" d="M14.1889 5.28751C14.035 5.29314 13.9012 5.38127 13.8538 5.50876L12.1198 10.18L6.47357 10.17C6.31391 10.17 6.17151 10.2593 6.12262 10.3912C6.07299 10.5237 6.12765 10.6681 6.2571 10.75L10.8326 13.6268L9.07564 18.293C9.02601 18.4249 9.07995 18.5699 9.2094 18.6511C9.33814 18.733 9.51361 18.733 9.64235 18.6511L14.2048 15.758L18.7687 18.6511C18.8974 18.733 19.0729 18.733 19.2016 18.6511C19.3311 18.5699 19.385 18.4249 19.3354 18.293L17.5784 13.6268L22.1539 10.75C22.2834 10.6681 22.338 10.5237 22.2884 10.3912C22.2388 10.2593 22.0971 10.17 21.9375 10.1706L16.2912 10.1806L14.5551 5.50939V5.50876C14.504 5.37189 14.3544 5.28188 14.189 5.28751L14.1889 5.28751Z" fill="#E9B200"/>
<g clip-path="url(#clip0_0_1)">
<path fill-rule="evenodd" clip-rule="evenodd" d="M37.2012 4.96C37.0487 4.96687 36.9164 5.05437 36.869 5.18062L35.0207 9.99998H29.1012V10.0006C28.9422 10.0006 28.8013 10.0894 28.7524 10.2206C28.7028 10.3519 28.756 10.4956 28.8833 10.5781L33.6917 13.6338L31.8434 18.6213V18.6207C31.7938 18.7532 31.8484 18.8976 31.9779 18.9788C32.1073 19.0607 32.2821 19.0601 32.4108 18.9782L37.2192 15.9225L42.0276 18.9782C42.1563 19.0601 42.3311 19.0607 42.4606 18.9788C42.59 18.8976 42.6447 18.7532 42.5951 18.6207L40.7468 13.6332L45.5552 10.5775V10.5781C45.6825 10.4956 45.7357 10.3519 45.6861 10.2206C45.6372 10.0894 45.4962 10.0006 45.3373 10.0006H39.4178L37.5695 5.18125V5.18062C37.5184 5.04375 37.3674 4.95312 37.2013 4.96H37.2012ZM37.2192 6.29374L38.8021 10.42V10.4206C38.851 10.5519 38.9927 10.6412 39.1523 10.6406H44.2082L40.0944 13.255V13.2556C39.9664 13.3369 39.9125 13.4806 39.9614 13.6125L41.5443 17.8807L37.437 15.2712H37.4363C37.3068 15.1887 37.1314 15.1887 37.0019 15.2712L32.8946 17.8807L34.4775 13.6125H34.4768C34.5257 13.4806 34.4718 13.3369 34.3437 13.2556L30.23 10.6412H35.2858V10.6406C35.4455 10.6412 35.5872 10.5519 35.6361 10.4206L37.219 6.29437L37.2192 6.29374Z" fill="#E9B200"/>
</g>
<g clip-path="url(#clip1_0_1)">
<path fill-rule="evenodd" clip-rule="evenodd" d="M60.2149 4.96C60.0624 4.96687 59.9301 5.05437 59.8827 5.18062L58.0344 9.99998H52.1149V10.0006C51.9559 10.0006 51.815 10.0894 51.7661 10.2206C51.7165 10.3519 51.7697 10.4956 51.897 10.5781L56.7054 13.6338L54.8571 18.6213V18.6207C54.8075 18.7532 54.8621 18.8976 54.9916 18.9788C55.121 19.0607 55.2958 19.0601 55.4245 18.9782L60.2329 15.9225L65.0413 18.9782C65.17 19.0601 65.3448 19.0607 65.4743 18.9788C65.6037 18.8976 65.6584 18.7532 65.6087 18.6207L63.7605 13.6332L68.5689 10.5775V10.5781C68.6962 10.4956 68.7494 10.3519 68.6998 10.2206C68.6509 10.0894 68.5099 10.0006 68.351 10.0006H62.4315L60.5832 5.18125V5.18062C60.5321 5.04375 60.3811 4.95312 60.215 4.96H60.2149ZM60.2329 6.29374L61.8158 10.42V10.4206C61.8647 10.5519 62.0064 10.6412 62.166 10.6406H67.2219L63.1081 13.255V13.2556C62.9801 13.3369 62.9262 13.4806 62.9751 13.6125L64.558 17.8807L60.4507 15.2712H60.45C60.3205 15.1887 60.1451 15.1887 60.0156 15.2712L55.9083 17.8807L57.4912 13.6125H57.4905C57.5394 13.4806 57.4855 13.3369 57.3574 13.2556L53.2437 10.6412H58.2995V10.6406C58.4592 10.6412 58.6009 10.5519 58.6498 10.4206L60.2327 6.29437L60.2329 6.29374Z" fill="#E9B200"/>
</g>
<defs>
<clipPath id="clip0_0_1">
<rect width="18.411" height="16" fill="white" transform="translate(28.0137 4)"/>
</clipPath>
<clipPath id="clip1_0_1">
<rect width="18.411" height="16" fill="white" transform="translate(51.0274 4)"/>
</clipPath>
</defs>
</svg>
