<svg width="67" height="26" viewBox="0 0 67 26" fill="none" xmlns="http://www.w3.org/2000/svg">
<rect width="67" height="26" fill="#F5F5F5"/>
<rect x="-25" y="-39" width="123" height="90" fill="white"/>
<path fill-rule="evenodd" clip-rule="evenodd" d="M13.9856 6.28751C13.8519 6.29314 13.7356 6.38127 13.6944 6.50876L12.1875 11.18L7.2806 11.17C7.14185 11.17 7.01811 11.2593 6.97561 11.3912C6.93248 11.5237 6.97998 11.6681 7.09248 11.75L11.0688 14.6268L9.54192 19.293C9.4988 19.4249 9.54567 19.5699 9.65817 19.6511C9.77005 19.733 9.92254 19.733 10.0344 19.6511L13.9994 16.758L17.9656 19.6511C18.0775 19.733 18.23 19.733 18.3419 19.6511C18.4544 19.5699 18.5013 19.4249 18.4581 19.293L16.9313 14.6268L20.9076 11.75C21.0201 11.6681 21.0676 11.5237 21.0245 11.3912C20.9813 11.2593 20.8582 11.17 20.7195 11.1706L15.8126 11.1806L14.3038 6.50939V6.50876C14.2595 6.37189 14.1295 6.28188 13.9857 6.28751L13.9856 6.28751Z" fill="#E9B200"/>
<g clip-path="url(#clip0_0_1)">
<path fill-rule="evenodd" clip-rule="evenodd" d="M33.9844 5.96C33.8519 5.96687 33.7369 6.05437 33.6956 6.18062L32.0894 11H26.9451V11.0006C26.8069 11.0006 26.6844 11.0894 26.642 11.2206C26.5988 11.3519 26.6451 11.4956 26.7557 11.5781L30.9344 14.6338L29.3282 19.6213V19.6207C29.2851 19.7532 29.3326 19.8976 29.4451 19.9788C29.5576 20.0607 29.7094 20.0601 29.8213 19.9782L34 16.9225L38.1788 19.9782C38.2906 20.0601 38.4425 20.0607 38.555 19.9788C38.6675 19.8976 38.715 19.7532 38.6719 19.6207L37.0656 14.6332L41.2444 11.5775V11.5781C41.355 11.4956 41.4012 11.3519 41.3581 11.2206C41.3156 11.0894 41.1931 11.0006 41.055 11.0006H35.9107L34.3044 6.18125V6.18062C34.2601 6.04375 34.1288 5.95312 33.9844 5.96H33.9844ZM34 7.29374L35.3756 11.42V11.4206C35.4181 11.5519 35.5413 11.6412 35.68 11.6406H40.0738L36.4987 14.255V14.2556C36.3875 14.3369 36.3406 14.4806 36.3831 14.6125L37.7587 18.8807L34.1893 16.2712H34.1887C34.0762 16.1887 33.9237 16.1887 33.8112 16.2712L30.2417 18.8807L31.6174 14.6125H31.6167C31.6592 14.4806 31.6124 14.3369 31.5011 14.2556L27.9261 11.6412H32.3198V11.6406C32.4586 11.6412 32.5817 11.5519 32.6242 11.4206L33.9998 7.29437L34 7.29374Z" fill="#E9B200"/>
</g>
<g clip-path="url(#clip1_0_1)">
<path fill-rule="evenodd" clip-rule="evenodd" d="M53.9844 5.96C53.8519 5.96687 53.7369 6.05437 53.6956 6.18062L52.0894 11H46.9451V11.0006C46.8069 11.0006 46.6844 11.0894 46.642 11.2206C46.5988 11.3519 46.6451 11.4956 46.7557 11.5781L50.9344 14.6338L49.3282 19.6213V19.6207C49.2851 19.7532 49.3326 19.8976 49.4451 19.9788C49.5576 20.0607 49.7094 20.0601 49.8213 19.9782L54 16.9225L58.1788 19.9782C58.2906 20.0601 58.4425 20.0607 58.555 19.9788C58.6675 19.8976 58.715 19.7532 58.6719 19.6207L57.0656 14.6332L61.2444 11.5775V11.5781C61.355 11.4956 61.4012 11.3519 61.3581 11.2206C61.3156 11.0894 61.1931 11.0006 61.055 11.0006H55.9107L54.3044 6.18125V6.18062C54.2601 6.04375 54.1288 5.95312 53.9844 5.96H53.9844ZM54 7.29374L55.3756 11.42V11.4206C55.4181 11.5519 55.5413 11.6412 55.68 11.6406H60.0738L56.4987 14.255V14.2556C56.3875 14.3369 56.3406 14.4806 56.3831 14.6125L57.7587 18.8807L54.1893 16.2712H54.1887C54.0762 16.1887 53.9237 16.1887 53.8112 16.2712L50.2417 18.8807L51.6174 14.6125H51.6167C51.6592 14.4806 51.6124 14.3369 51.5011 14.2556L47.9261 11.6412H52.3198V11.6406C52.4586 11.6412 52.5817 11.5519 52.6242 11.4206L53.9998 7.29437L54 7.29374Z" fill="#E9B200"/>
</g>
<defs>
<clipPath id="clip0_0_1">
<rect width="16" height="16" fill="white" transform="translate(26 5)"/>
</clipPath>
<clipPath id="clip1_0_1">
<rect width="16" height="16" fill="white" transform="translate(46 5)"/>
</clipPath>
</defs>
</svg>
